<?xml version="1.0" encoding="UTF-8" standalone="no"?><!DOCTYPE svg PUBLIC "-//W3C//DTD SVG 1.1//EN" "http://www.w3.org/Graphics/SVG/1.1/DTD/svg11.dtd"><svg width="100%" height="100%" viewBox="0 0 383 92" version="1.1" xmlns="http://www.w3.org/2000/svg" xmlns:xlink="http://www.w3.org/1999/xlink" xml:space="preserve" xmlns:serif="http://www.serif.com/" style="fill-rule:evenodd;clip-rule:evenodd;stroke-linejoin:round;stroke-miterlimit:2;"><path d="M66.935,56.275c-1.235,1.794 -2.894,2.769 -4.668,2.769c-2.084,0 -3.011,-1.911 -3.011,-6.279c0,-4.485 1.236,-6.786 3.666,-6.786c1.544,0 2.972,0.741 4.013,2.145l-0,8.151Zm-4.052,14.313c2.508,0 4.206,-0.468 5.673,-1.597c1.89,-1.484 2.354,-2.849 2.354,-7.1l-0,-14.781c-0,-1.56 0.115,-3.12 0.231,-3.94l-4.052,-0l0,1.794c-1.389,-1.598 -2.778,-2.222 -4.822,-2.222c-4.553,0 -7.139,3.744 -7.139,10.296c0,5.733 2.315,9.438 5.981,9.438c2.161,0 4.206,-0.936 5.826,-2.652l-0,2.067c-0,4.173 -1.08,5.46 -4.553,5.46c-1.813,0 -3.511,-0.351 -5.671,-1.246l-0.966,3.042c2.586,1.012 4.669,1.441 7.138,1.441" style="fill:#a4101e;"/><path d="M82.752,50.542c-1.35,-0 -1.544,-0 -3.126,0.039l-0.308,0.039c0.231,-3.081 1.62,-4.953 3.743,-4.953c2.044,-0 3.126,1.599 3.318,4.953c-0.849,-0.078 -1.35,-0.078 -3.627,-0.078m0.463,8.697c-2.431,-0 -3.897,-2.144 -3.897,-5.655l0,-0.195l0.386,-0.039l2.007,-0.078l2.275,-0c2.201,-0 4.4,0.039 5.982,0.078l0.347,0.039c0.037,-0.663 0.037,-0.897 0.037,-1.365c0,-5.889 -2.662,-9.282 -7.291,-9.282c-4.785,-0 -7.872,3.939 -7.872,10.14c-0,6.085 2.74,9.673 7.371,9.673c2.545,0 5.44,-1.248 7.947,-3.355l-1.736,-2.34c-1.813,1.482 -3.897,2.379 -5.556,2.379" style="fill:#a4101e;"/><path d="M27.443,56.393c-1.853,1.833 -3.782,2.925 -5.21,2.925c-1.234,-0 -1.929,-0.819 -1.929,-2.34c0,-2.574 2.585,-4.173 7.139,-4.524l-0,3.939Zm-2.123,-10.532c1.544,0 2.123,0.743 2.123,2.613l-0,1.367c-7.061,0.507 -11.075,3.237 -11.075,7.566c0,2.964 1.968,5.148 4.707,5.148c2.162,-0 4.091,-0.936 6.483,-3.081l0,2.73l4.13,-0c-0.155,-0.819 -0.272,-2.34 -0.272,-3.9l0,-9.282c0,-2.888 -0.115,-3.51 -0.81,-4.487c-0.849,-1.131 -2.584,-1.792 -4.668,-1.792c-2.625,-0 -5.673,0.895 -8.605,2.574l1.312,2.691c2.046,-1.287 4.668,-2.147 6.675,-2.147" style="fill:#a4101e;"/><path d="M36.342,47.11l-0,11.193c-0,1.678 -0.078,3.004 -0.233,3.9l4.478,-0c-0.156,-0.818 -0.272,-2.34 -0.272,-3.9l0,-8.97c1.62,-1.716 3.512,-2.847 4.824,-2.847c1.311,-0 1.736,0.819 1.736,3.432l-0,8.385c-0,1.638 -0.116,3.043 -0.27,3.9l4.476,-0c-0.155,-0.818 -0.233,-2.379 -0.233,-3.9l0,-9.36c0,-4.563 -1.08,-6.201 -4.012,-6.201c-2.16,-0 -4.553,1.131 -6.558,3.12l-0,-2.693l-4.169,0c0.155,0.899 0.233,2.225 0.233,3.941" style="fill:#a4101e;fill-rule:nonzero;"/><path d="M124.262,76.697l-0,6.254c-0,0.579 -0.027,1.035 -0.08,1.342l1.634,0c-0.054,-0.28 -0.08,-0.804 -0.08,-1.342l0,-6.254c0,-0.55 0.026,-1.06 0.08,-1.356l-1.634,0c0.053,0.309 0.08,0.765 0.08,1.356" style="fill:#655d3d;fill-rule:nonzero;"/><path d="M130.672,76.402l0.955,0c0.944,0 1.487,0.122 1.965,0.443c0.692,0.457 1.103,1.557 1.103,2.967c-0,0.844 -0.146,1.584 -0.452,2.173c-0.45,0.873 -1.141,1.196 -2.602,1.196l-0.969,-0l-0,-6.779Zm-1.475,0.296l0,6.253c0,0.578 -0.025,1.035 -0.079,1.343l2.602,-0c1.13,-0 1.992,-0.188 2.616,-0.564c1.169,-0.698 1.872,-2.241 1.872,-4.053c0,-1.1 -0.252,-2.054 -0.744,-2.859c-0.238,-0.389 -0.556,-0.711 -0.915,-0.953c-0.585,-0.402 -1.182,-0.523 -2.577,-0.523l-2.854,-0c0.054,0.322 0.079,0.778 0.079,1.356" style="fill:#655d3d;"/><path d="M138.676,76.697l-0,6.254c-0,0.579 -0.027,1.035 -0.08,1.342l5.046,0l0,-1.18c-0.199,0.04 -0.558,0.067 -1.089,0.067l-2.404,0l-0,-3.046l2.032,-0c0.411,-0 0.783,0.013 1.01,0.052l-0,-1.167l-0.08,0c-0.12,0.014 -0.226,0.027 -0.292,0.027l-0.266,0l-0.306,0.014l-2.098,-0l-0,-2.645l2.191,0c0.426,0 0.903,0.027 1.103,0.054l-0,-1.128l-4.847,0c0.053,0.323 0.08,0.779 0.08,1.356" style="fill:#655d3d;fill-rule:nonzero;"/><path d="M146.432,76.697l-0,6.254c-0,0.579 -0.027,1.035 -0.08,1.342l5.046,0l0,-1.18c-0.199,0.04 -0.558,0.067 -1.089,0.067l-2.403,0l0,-3.046l2.031,-0c0.411,-0 0.783,0.013 1.01,0.052l-0,-1.167l-0.08,0c-0.12,0.014 -0.226,0.027 -0.292,0.027l-0.266,0l-0.306,0.014l-2.097,-0l0,-2.645l2.19,0c0.426,0 0.903,0.027 1.103,0.054l-0,-1.128l-4.847,0c0.053,0.323 0.08,0.779 0.08,1.356" style="fill:#655d3d;fill-rule:nonzero;"/><path d="M154.137,76.697l-0,6.254c-0,0.579 -0.027,1.035 -0.08,1.342l1.407,0c-0.066,-0.415 -0.093,-0.831 -0.093,-1.342l0,-5.784l3.692,7.126l1.581,0l-0,-7.596c-0,-0.562 0.039,-1.06 0.091,-1.356l-1.42,0c0.066,0.416 0.106,0.887 0.106,1.356l0,5.651l-3.598,-7.007l-1.766,0c0.053,0.309 0.08,0.765 0.08,1.356" style="fill:#655d3d;fill-rule:nonzero;"/><path d="M169.741,82.951c0,0.578 -0.025,1.061 -0.079,1.343l1.633,-0c-0.054,-0.296 -0.079,-0.779 -0.079,-1.343l-0,-6.535l1.327,-0c0.386,-0 0.77,0.013 1.035,0.04l0.12,0.014l0,-1.128l-6.453,-0l0,1.128c0.225,-0.041 0.57,-0.054 1.142,-0.054l1.354,-0l0,6.535" style="fill:#655d3d;fill-rule:nonzero;"/><path d="M177.304,76.388l0.557,0c1.354,0 1.858,0.35 1.858,1.289c0,0.94 -0.597,1.45 -1.698,1.45l-0.717,0l0,-2.739Zm-1.461,0.296l0,6.267c0,0.579 -0.027,1.035 -0.079,1.344l1.62,-0c-0.054,-0.336 -0.08,-0.819 -0.08,-1.344l0,-2.765l0.57,0c1.01,0 1.248,0.243 1.659,1.613l0.426,1.449c0.159,0.537 0.239,0.844 0.252,1.047l1.634,-0c-0.12,-0.243 -0.146,-0.336 -0.225,-0.551l-0.12,-0.403l-0.12,-0.375l-0.504,-1.611c-0.359,-1.127 -0.717,-1.544 -1.527,-1.704c1.194,-0.336 1.818,-1.061 1.818,-2.108c-0,-0.778 -0.384,-1.462 -1.008,-1.812c-0.492,-0.268 -1.064,-0.39 -1.967,-0.39l-2.428,0c0.052,0.309 0.079,0.767 0.079,1.343" style="fill:#655d3d;"/><path d="M184.305,76.697l-0,6.254c-0,0.579 -0.027,1.035 -0.081,1.342l5.047,0l0,-1.18c-0.199,0.04 -0.558,0.067 -1.089,0.067l-2.403,0l0,-3.046l2.031,-0c0.411,-0 0.783,0.013 1.008,0.052l0,-1.167l-0.079,0c-0.119,0.014 -0.225,0.027 -0.293,0.027l-0.264,0l-0.306,0.014l-2.097,-0l0,-2.645l2.19,0c0.425,0 0.903,0.027 1.103,0.054l-0,-1.128l-4.848,0c0.054,0.323 0.081,0.779 0.081,1.356" style="fill:#655d3d;fill-rule:nonzero;"/><path d="M192.061,76.697l0,6.254c0,0.579 -0.027,1.035 -0.079,1.342l1.633,0c-0.054,-0.28 -0.081,-0.804 -0.081,-1.342l0,-2.817l1.86,-0c0.357,-0 0.731,0.013 1.01,0.039l-0,-1.167c-0.174,0.027 -0.56,0.054 -0.971,0.054l-1.899,-0l0,-2.645l1.953,0c0.518,0 0.956,0.027 1.196,0.054l-0,-1.128l-4.701,0c0.052,0.309 0.079,0.779 0.079,1.356" style="fill:#655d3d;fill-rule:nonzero;"/><path d="M199.111,76.697l-0,6.254c-0,0.579 -0.027,1.035 -0.08,1.342l1.632,0c-0.052,-0.28 -0.079,-0.804 -0.079,-1.342l-0,-2.817l1.86,-0c0.358,-0 0.729,0.013 1.008,0.039l-0,-1.167c-0.171,0.027 -0.557,0.054 -0.969,0.054l-1.899,-0l-0,-2.645l1.951,0c0.519,0 0.957,0.027 1.196,0.054l-0,-1.128l-4.7,0c0.053,0.309 0.08,0.779 0.08,1.356" style="fill:#655d3d;fill-rule:nonzero;"/><path d="M206.161,76.697l0,6.254c0,0.579 -0.027,1.035 -0.079,1.342l5.044,0l0,-1.18c-0.198,0.04 -0.556,0.067 -1.089,0.067l-2.403,0l0,-3.046l2.033,-0c0.411,-0 0.783,0.013 1.008,0.052l-0,-1.167l-0.08,0c-0.12,0.014 -0.225,0.027 -0.291,0.027l-0.267,0l-0.304,0.014l-2.099,-0l0,-2.645l2.192,0c0.424,0 0.903,0.027 1.102,0.054l0,-1.128l-4.846,0c0.052,0.323 0.079,0.779 0.079,1.356" style="fill:#655d3d;fill-rule:nonzero;"/><path d="M213.864,76.697l-0,6.254c-0,0.579 -0.026,1.035 -0.08,1.342l1.407,0c-0.066,-0.415 -0.093,-0.831 -0.093,-1.342l0,-5.784l3.692,7.126l1.581,0l-0,-7.596c-0,-0.562 0.04,-1.06 0.093,-1.356l-1.422,0c0.067,0.416 0.108,0.887 0.108,1.356l-0,5.651l-3.599,-7.007l-1.767,0c0.054,0.309 0.08,0.765 0.08,1.356" style="fill:#655d3d;fill-rule:nonzero;"/><path d="M228.42,75.811c-0,0.203 -0.012,0.591 -0.027,0.86l-0.332,6.066c-0.052,0.967 -0.079,1.275 -0.159,1.557l1.434,-0c-0.039,-0.255 -0.039,-0.416 -0.039,-0.831l0,-0.497l0.237,-5.893l2.139,7.221l1.248,-0l2.111,-7.233l0.213,5.851c-0,0.107 0.013,0.228 0.013,0.375c0.014,0.309 0.014,0.485 0.014,0.578c-0,0.214 -0,0.255 -0.027,0.429l1.567,-0c-0.013,-0.053 -0.027,-0.093 -0.027,-0.12c-0.039,-0.174 -0.066,-0.336 -0.079,-0.497c-0.014,-0.067 -0.014,-0.228 -0.041,-0.469l-0.025,-0.417l-0.32,-6.012c0,-0.108 -0.013,-0.255 -0.013,-0.431c-0.012,-0.241 -0.012,-0.442 -0.012,-0.564c-0,-0.201 -0,-0.267 0.025,-0.442l-1.845,-0l-2.112,7.302l-2.137,-7.302l-1.818,-0c0.012,0.189 0.012,0.255 0.012,0.469" style="fill:#655d3d;fill-rule:nonzero;"/><path d="M239.798,76.697l0,6.254c0,0.579 -0.027,1.035 -0.079,1.342l5.046,0l-0,-1.18c-0.2,0.04 -0.558,0.067 -1.089,0.067l-2.403,0l-0,-3.046l2.031,-0c0.411,-0 0.783,0.013 1.009,0.052l0,-1.167l-0.081,0c-0.118,0.014 -0.225,0.027 -0.292,0.027l-0.264,0l-0.306,0.014l-2.097,-0l-0,-2.645l2.19,0c0.424,0 0.903,0.027 1.102,0.054l0,-1.128l-4.846,0c0.052,0.323 0.079,0.779 0.079,1.356" style="fill:#655d3d;fill-rule:nonzero;"/><path d="M247.501,76.697l0,6.254c0,0.579 -0.025,1.035 -0.078,1.342l1.407,0c-0.066,-0.415 -0.094,-0.831 -0.094,-1.342l-0,-5.784l3.693,7.126l1.579,0l0,-7.596c0,-0.562 0.041,-1.06 0.093,-1.356l-1.42,0c0.066,0.416 0.105,0.887 0.105,1.356l-0,5.651l-3.597,-7.007l-1.766,0c0.053,0.309 0.078,0.765 0.078,1.356" style="fill:#655d3d;fill-rule:nonzero;"/><path d="M259.098,84.482c1.885,0 3.133,-1.087 3.133,-2.751c0,-0.39 -0.078,-0.751 -0.238,-1.062c-0.293,-0.589 -0.795,-1.032 -1.911,-1.636c-1.382,-0.752 -1.674,-1.047 -1.674,-1.652c-0,-0.697 0.624,-1.206 1.513,-1.206c0.438,0 0.81,0.093 1.434,0.362l0.279,-1.128c-0.624,-0.201 -1.246,-0.296 -1.833,-0.296c-1.699,0 -2.854,1.007 -2.854,2.484c-0,0.402 0.093,0.806 0.292,1.127c0.293,0.496 0.771,0.886 1.847,1.462c1.314,0.713 1.686,1.103 1.686,1.787c-0,0.859 -0.704,1.408 -1.82,1.408c-0.636,0 -1.128,-0.133 -1.846,-0.483l-0.291,1.181c0.795,0.283 1.539,0.403 2.283,0.403" style="fill:#655d3d;fill-rule:nonzero;"/><path d="M268.477,75.114c-2.655,-0 -4.14,1.677 -4.14,4.698c0,2.844 1.353,4.671 3.464,4.671c1.156,-0 2.218,-0.444 3.544,-1.478l-0.624,-0.898c-0.318,0.294 -0.448,0.388 -0.888,0.643c-0.69,0.402 -1.195,0.564 -1.74,0.564c-1.354,0 -2.244,-1.435 -2.244,-3.624c0,-2.202 0.93,-3.502 2.523,-3.502c0.704,-0 1.434,0.16 2.031,0.442l0.293,-1.167c-0.863,-0.256 -1.448,-0.349 -2.219,-0.349" style="fill:#655d3d;fill-rule:nonzero;"/><path d="M273.615,76.697l-0,6.254c-0,0.579 -0.026,1.035 -0.081,1.342l1.633,0c-0.052,-0.28 -0.078,-0.804 -0.078,-1.342l0,-2.804l0.119,0c0.492,-0.027 1.063,-0.04 1.579,-0.04c0.678,-0 1.634,0.027 1.994,0.04l-0,2.804c-0,0.579 -0.027,1.062 -0.081,1.342l1.633,0c-0.052,-0.294 -0.079,-0.778 -0.079,-1.342l-0,-6.254c-0,-0.562 0.027,-1.06 0.079,-1.356l-1.633,0c0.054,0.282 0.081,0.765 0.081,1.356l-0,2.336l-0.108,-0c-0.185,-0 -0.477,-0.014 -0.89,-0.014c-0.397,-0.013 -0.69,-0.013 -0.876,-0.013c-0.12,-0 -0.397,-0 -0.849,0.013c-0.412,0 -0.705,0.014 -0.877,0.014l-0.092,-0l0,-2.336c0,-0.55 0.026,-1.06 0.078,-1.356l-1.633,0c0.055,0.309 0.081,0.765 0.081,1.356" style="fill:#655d3d;fill-rule:nonzero;"/><path d="M283.719,76.697l-0,6.254c-0,0.579 -0.026,1.035 -0.08,1.342l5.046,0l0,-1.18c-0.199,0.04 -0.558,0.067 -1.09,0.067l-2.402,0l0,-3.046l2.03,-0c0.414,-0 0.784,0.013 1.009,0.052l0,-1.167l-0.078,0c-0.121,0.014 -0.226,0.027 -0.294,0.027l-0.265,0l-0.305,0.014l-2.097,-0l0,-2.645l2.192,0c0.423,0 0.9,0.027 1.101,0.054l-0,-1.128l-4.847,0c0.054,0.323 0.08,0.779 0.08,1.356" style="fill:#655d3d;fill-rule:nonzero;"/><path d="M291.421,76.697l0,6.254c0,0.579 -0.025,1.035 -0.078,1.342l1.407,0c-0.066,-0.415 -0.094,-0.831 -0.094,-1.342l-0,-5.784l3.691,7.126l1.581,0l0,-7.596c0,-0.562 0.041,-1.06 0.093,-1.356l-1.42,0c0.066,0.416 0.106,0.887 0.106,1.356l0,5.651l-3.598,-7.007l-1.766,0c0.053,0.309 0.078,0.765 0.078,1.356" style="fill:#655d3d;fill-rule:nonzero;"/><path d="M144.424,38.373l0.348,0c0.54,-0.039 1.08,-0.039 1.583,-0.039c4.824,0 6.444,1.092 6.444,4.329c-0,3.003 -2.046,4.719 -5.673,4.719l-2.702,0l0,-9.009Zm-2.854,1.716l-0,18.176c-0,1.521 -0.116,3.12 -0.233,3.939l3.32,-0c-0.156,-1.014 -0.233,-2.418 -0.233,-3.939l0,-8.699l2.162,0c1.813,0 2.893,0.275 3.666,0.936c0.772,0.663 1.273,1.718 2.044,4.331l1.236,4.368l0.27,0.936l0.231,0.897c0.155,0.585 0.192,0.702 0.192,1.17l3.359,-0c-0.348,-0.78 -0.464,-1.131 -0.657,-1.716l-0.309,-1.131l-0.308,-0.858l-1.312,-4.487c-1.235,-4.095 -2.084,-5.146 -4.515,-5.538c3.319,-0.78 5.248,-3.042 5.248,-6.045c0,-4.095 -2.932,-6.241 -8.605,-6.241l-5.789,-0c0.117,0.82 0.233,2.458 0.233,3.901" style="fill:#a4101e;"/><path d="M161.694,38.217l-0,20.087c-0,1.482 -0.116,3.081 -0.27,3.9l3.087,-0c-0.155,-0.819 -0.27,-2.459 -0.27,-3.9l-0,-9.908c1.659,-1.833 4.282,-3.315 5.865,-3.315c1.504,0 2.083,1.014 2.083,3.785l0,9.438c0,1.56 -0.117,3.159 -0.27,3.9l3.086,-0c-0.153,-0.936 -0.27,-2.381 -0.27,-3.9l-0,-9.401c-0,-4.485 -1.004,-6.16 -3.743,-6.16c-2.083,-0 -4.783,1.207 -6.751,3.001l-0,-7.527c-0,-1.443 0.115,-3.12 0.27,-3.939l-3.087,0c0.154,0.819 0.27,2.457 0.27,3.939" style="fill:#a4101e;fill-rule:nonzero;"/><path d="M190.413,50.737c-0.462,-0 -0.965,-0.039 -1.505,-0.039l-3.897,-0c-0.193,-0 -0.886,-0 -2.121,0.078l-0.348,-0c0.308,-3.627 1.929,-5.85 4.361,-5.85c2.353,-0 3.664,1.989 3.858,5.85c-0.155,-0 -0.27,-0 -0.348,-0.039m-3.665,9.244c-2.74,0 -4.245,-2.457 -4.245,-6.865l0,-0.195l0.309,-0l2.006,-0.117c0.541,-0 1.312,-0.039 2.316,-0.039c2.43,-0 4.476,0.039 6.174,0.156l0.27,-0l0.039,-0.429l-0,-1.013c-0,-5.344 -2.625,-8.737 -6.753,-8.737c-4.398,-0 -7.254,4.017 -7.254,10.14c-0,6.006 2.547,9.595 6.79,9.595c2.354,0 5.132,-1.287 7.448,-3.433l-1.428,-1.755c-1.659,1.599 -3.936,2.692 -5.672,2.692" style="fill:#a4101e;"/><path d="M201.182,34.278l-2.547,-0l0,3.237l2.547,-0l0,-3.237Zm-2.547,12.832l0,11.154c0,1.521 -0.115,3.12 -0.27,3.939l3.087,0c-0.154,-0.936 -0.27,-2.379 -0.27,-3.939l0,-11.154c0,-1.521 0.116,-3.003 0.27,-3.94l-3.087,-0c0.155,0.82 0.27,2.457 0.27,3.94" style="fill:#a4101e;"/><path d="M207.895,47.11l0,11.154c0,1.522 -0.115,3.121 -0.27,3.939l3.087,-0c-0.154,-0.974 -0.27,-2.496 -0.27,-3.939l0,-9.672c1.776,-1.989 4.283,-3.51 5.903,-3.51c1.467,-0 2.046,1.014 2.046,3.783l-0,9.399c-0,1.56 -0.116,3.121 -0.27,3.939l3.087,-0c-0.155,-0.936 -0.27,-2.379 -0.27,-3.939l-0,-9.36c-0,-4.485 -1.004,-6.162 -3.743,-6.162c-2.161,-0 -4.554,1.131 -6.753,3.12l0,-2.693l-2.817,0c0.155,0.821 0.27,2.459 0.27,3.941" style="fill:#a4101e;fill-rule:nonzero;"/><path d="M227.856,36.384c0.04,0.585 0.04,1.053 0.04,1.521c0,0.585 0,1.326 -0.04,2.225l-0.924,18.135l-0.08,1.131c-0.037,0.507 -0.037,0.858 -0.076,1.131c-0.038,0.78 -0.077,1.053 -0.308,1.677l3.126,-0c-0.117,-0.819 -0.156,-1.56 -0.156,-2.886c0,-0.39 0,-0.741 0.039,-1.053l0.888,-19.268l7.023,23.207l2.931,-0l6.945,-23.207l0.888,19.268l0.039,1.092l0.038,1.248l-0,0.429c-0,0.585 -0,0.702 -0.116,1.17l3.242,-0c-0.077,-0.117 -0.077,-0.234 -0.116,-0.273c-0.115,-0.429 -0.231,-0.897 -0.231,-1.365c-0.039,-0.117 -0.039,-0.507 -0.078,-1.209l-0.076,-1.092l-0.887,-18.135c0,-0.273 -0.04,-0.663 -0.04,-1.133l-0,-1.287c-0,-0.624 -0,-0.858 0.04,-1.521l-4.09,0l-6.908,23.051l-6.907,-23.051l-4.206,0l-0,0.195" style="fill:#a4101e;fill-rule:nonzero;"/><path d="M266.923,56.393c-2.199,2.379 -4.707,3.9 -6.442,3.9c-1.428,-0 -2.162,-0.936 -2.162,-2.691c0,-3.12 3.087,-5.109 8.604,-5.499l0,4.29Zm-2.238,-11.312c1.659,0 2.238,0.78 2.238,3.083l0,1.833l-0.385,0.039c-7.371,0.78 -10.881,3.235 -10.881,7.605c-0,2.808 1.89,4.836 4.476,4.836c2.16,-0 3.973,-0.858 6.444,-3.12l0.346,-0.312l0,3.159l2.817,-0c-0.153,-0.819 -0.231,-2.418 -0.231,-3.9l0,-10.14c0,-4.058 -1.197,-5.421 -4.669,-5.421c-2.354,-0 -5.171,0.895 -8.064,2.574l1.08,2.143c2.083,-1.482 4.708,-2.379 6.829,-2.379" style="fill:#a4101e;"/><path d="M278.482,34.278l-2.546,-0l0,3.237l2.546,-0l-0,-3.237Zm-2.546,12.832l0,11.154c0,1.521 -0.115,3.12 -0.271,3.939l3.087,0c-0.155,-0.936 -0.27,-2.379 -0.27,-3.939l-0,-11.154c-0,-1.521 0.115,-3.003 0.27,-3.94l-3.087,-0c0.156,0.82 0.271,2.457 0.271,3.94" style="fill:#a4101e;"/><path d="M285.196,47.11l0,11.154c0,1.522 -0.115,3.121 -0.27,3.939l3.087,-0c-0.156,-0.974 -0.271,-2.496 -0.271,-3.939l-0,-9.672c1.776,-1.989 4.285,-3.51 5.905,-3.51c1.466,-0 2.045,1.014 2.045,3.783l-0,9.399c-0,1.56 -0.117,3.121 -0.272,3.939l3.089,-0c-0.156,-0.936 -0.272,-2.379 -0.272,-3.939l0,-9.36c0,-4.485 -1.003,-6.162 -3.742,-6.162c-2.16,-0 -4.553,1.131 -6.753,3.12l-0,-2.693l-2.816,0c0.155,0.821 0.27,2.459 0.27,3.941" style="fill:#a4101e;fill-rule:nonzero;"/><path d="M118.515,55.65c-0,-3.771 3.055,-6.827 6.826,-6.827c3.77,0 6.827,3.056 6.827,6.827c-0,3.769 -3.057,6.826 -6.827,6.826c-3.771,0 -6.826,-3.057 -6.826,-6.826m3.888,-0c-0,1.623 1.315,2.938 2.938,2.938c1.623,0 2.939,-1.315 2.939,-2.938c-0,-1.623 -1.316,-2.937 -2.939,-2.937c-1.623,-0 -2.938,1.314 -2.938,2.937" style="fill:#655d3d;fill-rule:nonzero;"/><path d="M94.636,47.11l-0,11.193c-0,1.678 -0.077,3.004 -0.233,3.9l4.478,-0c-0.156,-0.818 -0.272,-2.34 -0.272,-3.9l0,-8.97c1.62,-1.716 3.512,-2.847 4.824,-2.847c1.311,-0 1.736,0.819 1.736,3.432l-0,8.385c-0,1.638 -0.116,3.043 -0.27,3.9l4.476,-0c-0.155,-0.818 -0.231,-2.379 -0.231,-3.9l-0,-9.36c-0,-4.563 -1.082,-6.201 -4.014,-6.201c-2.16,-0 -4.553,1.131 -6.56,3.12l0,-2.693l-4.167,0c0.156,0.899 0.233,2.225 0.233,3.941" style="fill:#a4101e;fill-rule:nonzero;"/><path d="M0.231,40.129l0,18.174c0,1.677 -0.076,3.005 -0.231,3.9l13.542,0l0,-3.432c-0.577,0.156 -1.542,0.197 -3.549,0.197l-5.48,-0l0,-18.839c0,-1.599 0.079,-3.082 0.233,-3.94l-4.746,-0c0.155,0.898 0.231,2.224 0.231,3.94" style="fill:#a4101e;fill-rule:nonzero;"/><rect x="356.354" y="85.705" width="1.358" height="5.874" style="fill:#a4101e;"/><path d="M356.532,56.874c-0.572,-0.534 -1.62,-1.482 -1.926,-1.547c-0.428,-0.09 -1.113,0.327 -1.761,0.537c-0.482,0.156 -1.211,-0.138 -1.215,-0.721c-0.006,-0.519 0.085,-0.617 -0.113,-0.923c-0.163,-0.25 -0.486,-0.145 -0.939,-0.165c-0.436,-0.019 -1.027,-0.42 -0.852,-0.874c0.191,-0.492 0.626,-0.485 0.501,-0.903c-0.133,-0.461 -1.344,-0.896 -0.696,-1.86c0.843,-0.812 1.475,0.31 1.952,0.363c0.435,0.049 0.352,-0.375 0.804,-0.65c0.415,-0.252 0.913,0.26 1.008,0.686c0.099,0.442 0.051,0.78 0.325,0.895c0.338,0.143 0.416,0.036 0.927,-0.049c0.578,-0.096 0.993,0.571 0.923,1.072c-0.093,0.675 -0.384,1.422 -0.222,1.829c0.114,0.285 0.846,0.883 1.269,1.213l-0.015,-15.12c-0.968,-0.093 -1.874,-0.442 -2.513,-0.807c-2.055,-1.168 -1.066,-2.863 -0.058,-2.865c0.01,-1.719 0.472,-2.898 1.525,-3.949c0.824,-0.824 1.464,-0.887 1.514,-1.005c0.048,0.118 0.69,0.183 1.512,1.005c1.053,1.051 1.515,2.23 1.525,3.949c0.921,0.024 1.887,1.697 -0.166,2.865c-0.644,0.366 -1.356,0.707 -2.303,0.803l0.011,15.099c0.427,-0.339 1.014,-0.935 1.116,-1.188c0.163,-0.407 -0.129,-1.154 -0.224,-1.829c-0.069,-0.501 0.347,-1.168 0.924,-1.072c0.512,0.085 0.593,0.192 0.926,0.049c0.276,-0.115 0.229,-0.453 0.327,-0.895c0.094,-0.426 0.592,-0.938 1.008,-0.686c0.453,0.275 0.369,0.699 0.802,0.65c0.479,-0.053 1.11,-1.175 1.955,-0.363c0.648,0.964 -0.563,1.399 -0.699,1.86c-0.123,0.418 0.31,0.411 0.501,0.903c0.177,0.454 -0.413,0.855 -0.849,0.874c-0.453,0.02 -0.779,-0.085 -0.939,0.165c-0.2,0.306 -0.11,0.404 -0.114,0.923c-0.003,0.583 -0.734,0.877 -1.214,0.721c-0.651,-0.21 -1.335,-0.627 -1.762,-0.537c-0.276,0.059 -1.154,0.93 -1.743,1.473l0.006,11.343c0.447,-1.849 1.126,-3.793 2.152,-5.568c1.338,-2.313 4.335,-6.241 7.188,-9.816c-0.138,-1.002 -0.492,-3.307 -0.856,-3.771c-0.468,-0.597 -1.707,-0.72 -2.802,-1.165c-0.815,-0.33 -1.587,-1.517 -0.896,-2.093c0.692,-0.577 1.892,0.2 1.803,-0.744c-0.058,-0.628 -1.425,-0.924 -2.005,-1.456c-0.56,-0.51 -0.822,-1.809 -0.083,-2.216c0.804,-0.442 1.704,0.662 2.007,-0.033c0.333,-0.765 -1.398,-3.216 0.645,-3.576c1.977,-0.349 1.233,2.54 1.808,3.143c0.523,0.55 0.991,-0.795 1.897,-0.654c0.834,0.127 1.031,1.438 0.681,2.11c-0.364,0.699 -1.548,1.443 -1.389,2.054c0.242,0.918 1.104,-0.222 1.949,0.084c0.849,0.304 0.529,1.683 -0.123,2.271c-0.879,0.793 -2.001,1.332 -2.237,2.053c-0.145,0.446 0.111,1.974 0.332,3.081c2.106,-2.62 4.047,-4.948 5.061,-6.157c-0.62,-0.68 -0.983,-1.436 -1.223,-2.114c-0.783,-2.23 1.046,-2.859 1.755,-2.271c1.136,-1.291 2.258,-1.878 3.741,-1.983c1.16,-0.081 1.688,0.294 1.803,0.236c-0.042,0.121 0.401,0.589 0.483,1.752c0.104,1.483 -0.321,2.676 -1.443,3.979c0.762,0.663 0.396,2.592 -1.921,2.126c-0.743,-0.149 -1.62,-0.437 -2.43,-1.035c-1.065,1.269 -3.023,3.619 -5.124,6.237c1.117,0.019 2.592,0.001 2.992,-0.212c0.669,-0.358 1.005,-1.557 1.634,-2.56c0.466,-0.743 1.768,-1.296 2.215,-0.516c0.449,0.781 -0.525,1.827 0.42,1.905c0.63,0.051 1.16,-1.244 1.784,-1.724c0.6,-0.46 1.924,-0.495 2.197,0.305c0.294,0.867 -0.948,1.563 -0.316,1.981c0.694,0.462 3.409,-0.819 3.409,1.257c0,2.007 -2.715,0.771 -3.409,1.233c-0.632,0.42 0.61,1.115 0.316,1.983c-0.273,0.8 -1.597,0.764 -2.197,0.303c-0.626,-0.48 -1.155,-1.773 -1.784,-1.722c-0.945,0.077 0.029,1.124 -0.42,1.904c-0.447,0.781 -1.749,0.228 -2.215,-0.516c-0.629,-1.004 -0.965,-2.202 -1.634,-2.559c-0.492,-0.264 -2.607,-0.23 -3.688,-0.194c-2.802,3.515 -5.715,7.341 -7.029,9.609c-1.319,2.279 -2.037,4.875 -2.424,7.161c1.45,-0.691 3.804,-1.882 4.284,-2.52c0.703,-0.937 0.586,-2.899 1.123,-4.645c0.702,-2.279 2.483,-4.058 4.008,-2.532c0.983,0.982 -0.654,3.303 1.659,2.685c1.062,-0.282 1.059,-2.015 1.353,-3.194c0.312,-1.252 2.582,-2.259 3.483,-1.317c0.98,1.022 -0.415,3.066 0.579,3.111c1.286,0.06 5.778,-3.502 7.131,-0.598c1.311,2.806 -3.327,3.06 -4.501,4.309c-0.801,0.852 1.866,1.308 2.019,2.714c0.141,1.296 -2.627,2.106 -3.768,1.852c-1.595,-0.352 -2.22,-2.02 -3.489,-1.645c-1.98,0.586 -0.029,1.296 -0.146,2.68c-0.117,1.383 -2.532,1.422 -3.67,0.686c-1.535,-0.993 -3.548,-2.45 -4.718,-2.513c-0.988,-0.054 -4.513,1.97 -5.581,2.597c-0.177,1.557 -0.206,2.836 -0.201,3.568l-1.424,0c0.003,-0.741 -0.025,-2.046 -0.207,-3.63c-1.179,-0.688 -4.519,-2.587 -5.478,-2.535c-1.17,0.063 -3.183,1.52 -4.717,2.513c-1.139,0.736 -3.554,0.697 -3.671,-0.686c-0.117,-1.384 1.833,-2.094 -0.144,-2.68c-1.27,-0.375 -1.896,1.293 -3.49,1.645c-1.14,0.254 -3.909,-0.556 -3.768,-1.852c0.153,-1.406 2.82,-1.862 2.019,-2.714c-1.175,-1.249 -5.811,-1.503 -4.502,-4.309c1.353,-2.904 5.844,0.658 7.133,0.598c0.993,-0.045 -0.402,-2.089 0.577,-3.111c0.902,-0.942 3.171,0.065 3.483,1.317c0.294,1.179 0.293,2.912 1.353,3.194c2.315,0.618 0.677,-1.703 1.661,-2.685c1.524,-1.526 3.304,0.253 4.006,2.532c0.536,1.746 0.422,3.708 1.125,4.645c0.467,0.623 2.72,1.77 4.176,2.469c-0.39,-2.274 -1.108,-4.848 -2.416,-7.11c-1.314,-2.268 -4.227,-6.094 -7.029,-9.609c-1.082,-0.036 -3.195,-0.07 -3.687,0.194c-0.669,0.357 -1.005,1.555 -1.635,2.559c-0.468,0.744 -1.769,1.297 -2.217,0.516c-0.447,-0.78 0.526,-1.827 -0.419,-1.904c-0.63,-0.051 -1.158,1.242 -1.782,1.722c-0.601,0.461 -1.924,0.497 -2.197,-0.303c-0.294,-0.868 0.948,-1.563 0.316,-1.983c-0.694,-0.462 -3.411,0.774 -3.411,-1.233c0,-2.076 2.717,-0.795 3.411,-1.257c0.632,-0.418 -0.61,-1.114 -0.316,-1.981c0.273,-0.8 1.596,-0.765 2.197,-0.305c0.624,0.48 1.152,1.775 1.782,1.724c0.945,-0.078 -0.028,-1.124 0.419,-1.905c0.448,-0.78 1.749,-0.227 2.217,0.516c0.63,1.003 0.966,2.202 1.635,2.56c0.399,0.213 1.875,0.231 2.992,0.212c-2.101,-2.618 -4.059,-4.968 -5.124,-6.237c-0.81,0.598 -1.689,0.886 -2.431,1.035c-2.316,0.466 -2.682,-1.463 -1.922,-2.126c-1.12,-1.303 -1.546,-2.496 -1.441,-3.979c0.079,-1.163 0.523,-1.631 0.483,-1.752c0.112,0.058 0.643,-0.317 1.801,-0.236c1.482,0.105 2.606,0.692 3.74,1.983c0.712,-0.588 2.541,0.041 1.756,2.271c-0.24,0.678 -0.601,1.434 -1.221,2.114c1.014,1.209 2.952,3.537 5.061,6.157c0.218,-1.107 0.476,-2.635 0.33,-3.081c-0.235,-0.721 -1.357,-1.26 -2.236,-2.053c-0.651,-0.588 -0.971,-1.967 -0.125,-2.271c0.848,-0.306 1.71,0.834 1.95,-0.084c0.161,-0.611 -1.024,-1.355 -1.389,-2.054c-0.348,-0.672 -0.153,-1.983 0.681,-2.11c0.908,-0.141 1.374,1.204 1.899,0.654c0.575,-0.603 -0.169,-3.492 1.806,-3.143c2.043,0.36 0.312,2.811 0.645,3.576c0.305,0.695 1.205,-0.409 2.007,0.033c0.741,0.407 0.476,1.706 -0.082,2.216c-0.581,0.532 -1.947,0.828 -2.006,1.456c-0.088,0.944 1.11,0.167 1.802,0.744c0.691,0.576 -0.078,1.763 -0.893,2.093c-1.096,0.445 -2.334,0.568 -2.803,1.165c-0.365,0.464 -0.717,2.769 -0.857,3.771c2.852,3.575 5.849,7.503 7.188,9.816c1.037,1.79 1.718,3.75 2.163,5.613l-0.001,-11.314" style="fill:#a4101e;fill-rule:nonzero;"/><path d="M315.282,91.418l-0.75,-0.001l-0,-91.417l0.75,0l-0,91.418Z" style="fill:#655d3d;"/><path d="M363.961,84.587c-1.465,-0.114 -2.886,-0.18 -4.17,-0.198c-1.629,-0.022 -3.447,0.027 -5.307,0.12c-1.867,1.668 -3.939,3.899 -4.029,3.998c-0.037,-0 -1.06,0.009 -1.587,-0.345c-0.691,-0.467 -0.949,-1.802 -0.969,-1.908c0.072,-0.054 0.887,-0.657 1.892,-1.416c-5.3,0.402 -9.827,0.976 -9.827,0.976c0,0 -0.126,-0.034 -0.333,-0.138c-0.207,-0.103 -0.49,-0.274 -0.802,-0.546c-0.623,-0.541 -1.353,-1.485 -1.781,-3.087c-0.832,-3.132 1.323,-5.994 1.421,-6.121c0.174,0.01 4.359,0.264 9.054,0.492c-0.845,-0.662 -1.526,-1.148 -1.598,-1.2c0.017,-0.047 0.362,-1.127 0.83,-1.695c0.468,-0.569 1.407,-1.086 1.504,-1.14c0.059,0.073 0.567,0.709 1.248,1.519c0.725,0.863 1.649,1.922 2.435,2.711c2.445,0.1 4.725,0.168 6.349,0.168c1.287,-0 2.858,-0.086 4.52,-0.218c-0.9,-0.679 -1.637,-1.188 -1.713,-1.24c0.031,-0.098 0.364,-1.158 0.801,-1.707c0.436,-0.551 1.387,-1.113 1.483,-1.167c0.111,0.135 1.848,2.233 3.332,3.742c4.506,-0.48 8.632,-1.09 8.835,-1.12c0.054,0.111 1.536,3.115 1.705,5.268c0.173,2.155 -0.804,5.272 -0.85,5.478c-0.215,-0.027 -3.962,-0.518 -8.304,-0.917c-1.452,1.398 -3.17,3.48 -3.242,3.558c-0.036,0 -1.06,0.008 -1.585,-0.346c-0.692,-0.465 -0.96,-1.857 -0.971,-1.907l1.659,-1.614Zm-4.522,-4.42c1.27,0.006 16.233,0.412 16.444,0.42c0.047,-0.06 0.086,-1.065 -0.118,-1.697c-0.174,-0.538 -0.672,-1.227 -0.728,-1.258c-0.198,0.009 -10.423,0.792 -17.101,0.847c-6.863,0.057 -17.417,-0.592 -17.589,-0.595c-0.096,0.037 0.471,0.715 0.691,1.215c0.242,0.541 0.255,1.417 0.461,1.449c0.204,0.03 0.328,0.039 0.328,0.039c0,-0 15.999,-0.426 17.612,-0.42" style="fill:#a4101e;fill-rule:nonzero;"/></svg>